<svg xmlns="http://www.w3.org/2000/svg" height="24px" width="24px" viewBox="0 0 24 24"><symbol viewBox="0 0 24 24" id="icon-catalog-search">
  <g clip-rule="evenodd" fill-rule="evenodd">
    <path d="M13 5C13 3.34315 14.3431 2 16 2H19C20.6569 2 22 3.34315 22 5V8C22 9.65685 20.6569 11 19 11H16C14.3431 11 13 9.65685 13 8V5ZM16 4C15.4477 4 15 4.44772 15 5V8C15 8.55228 15.4477 9 16 9H19C19.5523 9 20 8.55228 20 8V5C20 4.44772 19.5523 4 19 4H16Z"/>
    <path d="M2 16C2 14.3431 3.34315 13 5 13H8C9.65685 13 11 14.3431 11 16V19C11 20.6569 9.65685 22 8 22H5C3.34315 22 2 20.6569 2 19V16ZM5 15C4.44772 15 4 15.4477 4 16V19C4 19.5523 4.44772 20 5 20H8C8.55228 20 9 19.5523 9 19V16C9 15.4477 8.55228 15 8 15H5Z"/>
    <path d="M16 13C14.3431 13 13 14.3431 13 16V19C13 20.6569 14.3431 22 16 22H19C20.6569 22 22 20.6569 22 19V16C22 14.3431 20.6569 13 19 13H16ZM15 16C15 15.4477 15.4477 15 16 15H19C19.5523 15 20 15.4477 20 16V19C20 19.5523 19.5523 20 19 20H16C15.4477 20 15 19.5523 15 19V16Z"/>
    <path d="M8.89574 10.31C8.20201 10.7471 7.38054 11 6.5 11C4.01472 11 2 8.98528 2 6.5C2 4.01472 4.01472 2 6.5 2C8.98528 2 11 4.01472 11 6.5C11 7.38054 10.7471 8.20201 10.31 8.89574L11.7071 10.2929C12.0976 10.6834 12.0976 11.3166 11.7071 11.7071C11.3166 12.0976 10.6834 12.0976 10.2929 11.7071L8.89574 10.31ZM4 6.5C4 5.11929 5.11929 4 6.5 4C7.88071 4 9 5.11929 9 6.5C9 7.88071 7.88071 9 6.5 9C5.11929 9 4 7.88071 4 6.5Z"/>
  </g>
</symbol><use xlink:href="#icon-catalog-search" xmlns:xlink="http://www.w3.org/1999/xlink"/></svg>
