<svg xmlns="http://www.w3.org/2000/svg" viewBox="0 0 24 24"><symbol viewBox="0 0 24 24" id="icon-attention">
  <path d="M12 1.99998C6.48 1.99998 2 6.47998 2 12C2 17.52 6.48 22 12 22C17.52 22 22 17.52 22 12C22 6.47998 17.52 1.99998 12 1.99998ZM12 13C11.45 13 11 12.55 11 12V7.99998C11 7.44998 11.45 6.99998 12 6.99998C12.55 6.99998 13 7.44998 13 7.99998V12C13 12.55 12.55 13 12 13ZM13 16C13 16.5523 12.5523 17 12 17C11.4477 17 11 16.5523 11 16C11 15.4477 11.4477 15 12 15C12.5523 15 13 15.4477 13 16Z"/>
</symbol><use xlink:href="#icon-attention" xmlns:xlink="http://www.w3.org/1999/xlink"/></svg>