<svg xmlns="http://www.w3.org/2000/svg" viewBox="0 0 40 24"><symbol viewBox="0 0 40 24" id="icon-logo-MasterCard">
    <path d="m26.2069 2.56247h-12.4138v18.86983h12.4138z" fill="#ff5f00"/>
    <path d="m15.8054 11.9983c-.0015-1.817.4374-3.61051 1.2836-5.24483s2.0775-3.06661 3.6007-4.18846c-1.8866-1.39127-4.1522-2.256407-6.5379-2.4965533-2.3857-.2401467-4.79527.1543923-6.95333 1.1385233-2.15807.98413-3.97755 2.51815-5.25048 4.42673-1.272944 1.90858-1.94799 4.11473-1.94799 6.36629 0 2.2516.675046 4.4577 1.94799 6.3663 1.27293 1.9086 3.09241 3.4426 5.25048 4.4267 2.15806.9842 4.56763 1.3787 6.95333 1.1385 2.3857-.2401 4.6513-1.1052 6.5379-2.4965-1.5237-1.1222-2.7553-2.555-3.6015-4.19-.8462-1.6349-1.2849-3.4291-1.2828-5.2467z" fill="#eb001b"/>
    <path d="m40 12.0017c-.0001 2.2514-.6302 4.4575-1.8184 6.3659-1.1881 1.9084-2.8864 3.4422-4.9007 4.4261s-4.2632 1.3781-6.4898 1.1377c-2.2266-.2405-4.341-1.106-6.1015-2.4975 1.421-1.1227 2.5697-2.5552 3.3597-4.1895.7899-1.6342 1.2003-3.4274 1.2003-5.2444s-.4104-3.61022-1.2003-5.24445c-.79-1.63422-1.9387-3.06673-3.3597-4.18945 1.7605-1.39154 3.8749-2.257001 6.1015-2.4974641 2.2266-.2404629 4.4755.1537761 6.4898 1.1376541 2.0143.98388 3.7126 2.51769 4.9007 4.42612 1.1882 1.90842 1.8183 4.11445 1.8184 6.36589z" fill="#f79e1b"/>
</symbol><use xlink:href="#icon-logo-MasterCard" xmlns:xlink="http://www.w3.org/1999/xlink"/></svg>