<svg xmlns="http://www.w3.org/2000/svg" viewBox="0 0 24 24"><symbol viewBox="0 0 24 24" id="icon-delivery-packstation">
    <g>
        <path d="m10 9h4v3h-4z"/>
        <path d="m14 13h-4v1h4z"/>
        <path clip-rule="evenodd" d="m1 2v20h22v-20zm14 2h-6v16h6zm2 16h4v-7h-4zm0-8v-2h4v2zm0-3v-2h4v2zm4-5v2h-4v-2zm-18 0h4v2h-4zm0 3h4v2h-4zm0 3v2h4v-2zm0 10v-7h4v7z" fill-rule="evenodd"/>
    </g>
</symbol><use xlink:href="#icon-delivery-packstation" xmlns:xlink="http://www.w3.org/1999/xlink"/></svg>