<svg xmlns="http://www.w3.org/2000/svg" viewBox="0 0 64 24"><symbol viewBox="0 0 64 24" id="icon-logo-Visa">
    <path d="m24.5392 2.35383-8.1174 19.34207h-5.2953l-3.99541-15.43687c-.24145-.9488-.45295-1.29778-1.18965-1.69825-1.20463-.65394-3.1931-1.2652-4.94144-1.64586l.11809-.56109h8.52492c1.08519 0 2.06289.72215 2.31189 1.97064l2.1105 11.19413 5.2107-13.16477zm20.7487 13.02707c.0234-5.104-7.0634-5.38785-7.0171-7.66786.0149-.69312.6767-1.43157 2.1241-1.61948.7174-.09286 2.697-.16767 4.9415.86474l.8777-4.1028c-1.2064-.43567-2.7565-.8555-4.6868-.8555-4.952 0-8.4359 2.62812-8.465 6.39383-.0317 2.78477 2.489 4.33687 4.3836 5.26417 1.955.9483 2.6093 1.5565 2.5996 2.4028-.0141 1.2982-1.5588 1.8725-2.9965 1.8945-2.5208.0387-3.9801-.6799-5.145-1.223l-.9086 4.241c1.1711.536 3.3323 1.0021 5.5684 1.0267 5.2667-.0004 8.7096-2.5978 8.7241-6.6191zm13.0791 6.3146h4.633l-4.0474-19.34212h-4.2731c-.9636 0-1.7747.55801-2.1347 1.4188l-7.5173 17.92332h5.2618l1.0438-2.8887h6.4267zm-5.5922-6.8528 2.6379-7.26345 1.5161 7.26345zm-21.0771-12.48887-4.1421 19.34207h-5.0098l4.1426-19.34207z" fill="#2a2c6b"/>
</symbol><use xlink:href="#icon-logo-Visa" xmlns:xlink="http://www.w3.org/1999/xlink"/></svg>